<mxfile host="Electron" modified="2023-04-17T18:29:27.527Z" agent="Mozilla/5.0 (Windows NT 10.0; Win64; x64) AppleWebKit/537.36 (KHTML, like Gecko) draw.io/21.1.2 Chrome/106.0.5249.199 Electron/21.4.3 Safari/537.36" etag="O2NA3p8u6JZUFri2gl6U" version="21.1.2" type="device">
  <diagram name="Page-1" id="n2OFDX21gRWogWB3N7HW">
    <mxGraphModel dx="2284" dy="1936" grid="1" gridSize="2" guides="1" tooltips="1" connect="1" arrows="1" fold="1" page="1" pageScale="1" pageWidth="850" pageHeight="1100" math="0" shadow="0">
      <root>
        <mxCell id="0" />
        <mxCell id="1" parent="0" />
        <mxCell id="E7lBSElSKZMrJUXUcwta-5" value="IParser" style="swimlane;fontStyle=1;align=center;verticalAlign=top;childLayout=stackLayout;horizontal=1;startSize=26;horizontalStack=0;resizeParent=1;resizeParentMax=0;resizeLast=0;collapsible=1;marginBottom=0;whiteSpace=wrap;html=1;" parent="1" vertex="1">
          <mxGeometry x="-94" y="398" width="268" height="60" as="geometry" />
        </mxCell>
        <mxCell id="E7lBSElSKZMrJUXUcwta-7" value="" style="line;strokeWidth=1;fillColor=none;align=left;verticalAlign=middle;spacingTop=-1;spacingLeft=3;spacingRight=3;rotatable=0;labelPosition=right;points=[];portConstraint=eastwest;strokeColor=inherit;" parent="E7lBSElSKZMrJUXUcwta-5" vertex="1">
          <mxGeometry y="26" width="268" height="8" as="geometry" />
        </mxCell>
        <mxCell id="E7lBSElSKZMrJUXUcwta-8" value="+ Parse(filePath: string): ElectricityUsageInfo&amp;nbsp;" style="text;strokeColor=none;fillColor=none;align=left;verticalAlign=top;spacingLeft=4;spacingRight=4;overflow=hidden;rotatable=0;points=[[0,0.5],[1,0.5]];portConstraint=eastwest;whiteSpace=wrap;html=1;" parent="E7lBSElSKZMrJUXUcwta-5" vertex="1">
          <mxGeometry y="34" width="268" height="26" as="geometry" />
        </mxCell>
        <mxCell id="E7lBSElSKZMrJUXUcwta-32" value="&lt;u&gt;Validator&lt;/u&gt;" style="swimlane;fontStyle=1;align=center;verticalAlign=top;childLayout=stackLayout;horizontal=1;startSize=26;horizontalStack=0;resizeParent=1;resizeParentMax=0;resizeLast=0;collapsible=1;marginBottom=0;whiteSpace=wrap;html=1;" parent="1" vertex="1">
          <mxGeometry x="834" y="422" width="424" height="190" as="geometry" />
        </mxCell>
        <mxCell id="E7lBSElSKZMrJUXUcwta-34" value="" style="line;strokeWidth=1;fillColor=none;align=left;verticalAlign=middle;spacingTop=-1;spacingLeft=3;spacingRight=3;rotatable=0;labelPosition=right;points=[];portConstraint=eastwest;strokeColor=inherit;" parent="E7lBSElSKZMrJUXUcwta-32" vertex="1">
          <mxGeometry y="26" width="424" height="8" as="geometry" />
        </mxCell>
        <mxCell id="E7lBSElSKZMrJUXUcwta-35" value="&lt;u&gt;+ ValidateQuarter(quarter: byte): byte&lt;/u&gt;" style="text;strokeColor=none;fillColor=none;align=left;verticalAlign=top;spacingLeft=4;spacingRight=4;overflow=hidden;rotatable=0;points=[[0,0.5],[1,0.5]];portConstraint=eastwest;whiteSpace=wrap;html=1;" parent="E7lBSElSKZMrJUXUcwta-32" vertex="1">
          <mxGeometry y="34" width="424" height="26" as="geometry" />
        </mxCell>
        <mxCell id="E7lBSElSKZMrJUXUcwta-69" value="+ ValidateIndicatorsDateTime(dateTime: DateTime[]): DateTime[]" style="text;strokeColor=none;fillColor=none;align=left;verticalAlign=top;spacingLeft=4;spacingRight=4;overflow=hidden;rotatable=0;points=[[0,0.5],[1,0.5]];portConstraint=eastwest;whiteSpace=wrap;html=1;fontStyle=4" parent="E7lBSElSKZMrJUXUcwta-32" vertex="1">
          <mxGeometry y="60" width="424" height="26" as="geometry" />
        </mxCell>
        <mxCell id="z-QVnbDBLJ9JicikoFSE-6" value="+ ValidateIndicator(inputIndicator: decimal, outputIndicator: decimal): decimal" style="text;strokeColor=none;fillColor=none;align=left;verticalAlign=top;spacingLeft=4;spacingRight=4;overflow=hidden;rotatable=0;points=[[0,0.5],[1,0.5]];portConstraint=eastwest;whiteSpace=wrap;html=1;fontStyle=4" parent="E7lBSElSKZMrJUXUcwta-32" vertex="1">
          <mxGeometry y="86" width="424" height="26" as="geometry" />
        </mxCell>
        <mxCell id="E7lBSElSKZMrJUXUcwta-98" value="+ ValidateSurname(surname: string): string" style="text;strokeColor=none;fillColor=none;align=left;verticalAlign=top;spacingLeft=4;spacingRight=4;overflow=hidden;rotatable=0;points=[[0,0.5],[1,0.5]];portConstraint=eastwest;whiteSpace=wrap;html=1;fontStyle=4" parent="E7lBSElSKZMrJUXUcwta-32" vertex="1">
          <mxGeometry y="112" width="424" height="26" as="geometry" />
        </mxCell>
        <mxCell id="z-QVnbDBLJ9JicikoFSE-2" value="+ IsValidUserCount(users: List&amp;lt;User&amp;gt;, apartmentCount: uint): bool" style="text;strokeColor=none;fillColor=none;align=left;verticalAlign=top;spacingLeft=4;spacingRight=4;overflow=hidden;rotatable=0;points=[[0,0.5],[1,0.5]];portConstraint=eastwest;whiteSpace=wrap;html=1;fontStyle=4" parent="E7lBSElSKZMrJUXUcwta-32" vertex="1">
          <mxGeometry y="138" width="424" height="26" as="geometry" />
        </mxCell>
        <mxCell id="z-QVnbDBLJ9JicikoFSE-12" value="+ IsLessThanZero(decimal value): bool" style="text;strokeColor=none;fillColor=none;align=left;verticalAlign=top;spacingLeft=4;spacingRight=4;overflow=hidden;rotatable=0;points=[[0,0.5],[1,0.5]];portConstraint=eastwest;whiteSpace=wrap;html=1;fontStyle=4" parent="E7lBSElSKZMrJUXUcwta-32" vertex="1">
          <mxGeometry y="164" width="424" height="26" as="geometry" />
        </mxCell>
        <mxCell id="E7lBSElSKZMrJUXUcwta-38" value="" style="endArrow=open;endFill=0;endSize=12;html=1;rounded=0;dashed=1;exitX=1;exitY=0.917;exitDx=0;exitDy=0;exitPerimeter=0;edgeStyle=elbowEdgeStyle;elbow=vertical;entryX=0.5;entryY=0;entryDx=0;entryDy=0;" parent="1" source="E7lBSElSKZMrJUXUcwta-47" target="E7lBSElSKZMrJUXUcwta-32" edge="1">
          <mxGeometry width="160" relative="1" as="geometry">
            <mxPoint x="728" y="140" as="sourcePoint" />
            <mxPoint x="1038" y="374" as="targetPoint" />
            <Array as="points">
              <mxPoint x="924" y="144" />
            </Array>
          </mxGeometry>
        </mxCell>
        <mxCell id="E7lBSElSKZMrJUXUcwta-48" value="TxtParser" style="swimlane;fontStyle=1;align=center;verticalAlign=top;childLayout=stackLayout;horizontal=1;startSize=26;horizontalStack=0;resizeParent=1;resizeParentMax=0;resizeLast=0;collapsible=1;marginBottom=0;whiteSpace=wrap;html=1;" parent="1" vertex="1">
          <mxGeometry x="-274" y="570" width="262" height="86" as="geometry" />
        </mxCell>
        <mxCell id="E7lBSElSKZMrJUXUcwta-50" value="" style="line;strokeWidth=1;fillColor=none;align=left;verticalAlign=middle;spacingTop=-1;spacingLeft=3;spacingRight=3;rotatable=0;labelPosition=right;points=[];portConstraint=eastwest;strokeColor=inherit;" parent="E7lBSElSKZMrJUXUcwta-48" vertex="1">
          <mxGeometry y="26" width="262" height="8" as="geometry" />
        </mxCell>
        <mxCell id="koPUKvsTtjdyuLa13LmC-1" value="+ Parse(filePath: string) : ElectricityUsageInfo&amp;nbsp;" style="text;strokeColor=none;fillColor=none;align=left;verticalAlign=top;spacingLeft=4;spacingRight=4;overflow=hidden;rotatable=0;points=[[0,0.5],[1,0.5]];portConstraint=eastwest;whiteSpace=wrap;html=1;" parent="E7lBSElSKZMrJUXUcwta-48" vertex="1">
          <mxGeometry y="34" width="262" height="26" as="geometry" />
        </mxCell>
        <mxCell id="z-QVnbDBLJ9JicikoFSE-1" value="&lt;u&gt;- SplitUsers(text: string): string[]&lt;/u&gt;" style="text;strokeColor=none;fillColor=none;align=left;verticalAlign=top;spacingLeft=4;spacingRight=4;overflow=hidden;rotatable=0;points=[[0,0.5],[1,0.5]];portConstraint=eastwest;whiteSpace=wrap;html=1;" parent="E7lBSElSKZMrJUXUcwta-48" vertex="1">
          <mxGeometry y="60" width="262" height="26" as="geometry" />
        </mxCell>
        <mxCell id="E7lBSElSKZMrJUXUcwta-64" value="" style="endArrow=block;dashed=1;endFill=0;endSize=12;html=1;rounded=0;exitX=0.5;exitY=0;exitDx=0;exitDy=0;entryX=0.503;entryY=1.039;entryDx=0;entryDy=0;entryPerimeter=0;edgeStyle=elbowEdgeStyle;elbow=vertical;" parent="1" source="E7lBSElSKZMrJUXUcwta-48" target="E7lBSElSKZMrJUXUcwta-8" edge="1">
          <mxGeometry width="160" relative="1" as="geometry">
            <mxPoint x="-352" y="556" as="sourcePoint" />
            <mxPoint x="-192" y="556" as="targetPoint" />
            <Array as="points">
              <mxPoint x="-12" y="508" />
            </Array>
          </mxGeometry>
        </mxCell>
        <mxCell id="E7lBSElSKZMrJUXUcwta-65" value="JsonParser" style="swimlane;fontStyle=1;align=center;verticalAlign=top;childLayout=stackLayout;horizontal=1;startSize=26;horizontalStack=0;resizeParent=1;resizeParentMax=0;resizeLast=0;collapsible=1;marginBottom=0;whiteSpace=wrap;html=1;" parent="1" vertex="1">
          <mxGeometry x="78" y="570" width="254" height="60" as="geometry" />
        </mxCell>
        <mxCell id="E7lBSElSKZMrJUXUcwta-66" value="" style="line;strokeWidth=1;fillColor=none;align=left;verticalAlign=middle;spacingTop=-1;spacingLeft=3;spacingRight=3;rotatable=0;labelPosition=right;points=[];portConstraint=eastwest;strokeColor=inherit;" parent="E7lBSElSKZMrJUXUcwta-65" vertex="1">
          <mxGeometry y="26" width="254" height="8" as="geometry" />
        </mxCell>
        <mxCell id="E7lBSElSKZMrJUXUcwta-67" value="+ Parse(filePath: string): ElectricityUsageInfo&amp;nbsp;" style="text;strokeColor=none;fillColor=none;align=left;verticalAlign=top;spacingLeft=4;spacingRight=4;overflow=hidden;rotatable=0;points=[[0,0.5],[1,0.5]];portConstraint=eastwest;whiteSpace=wrap;html=1;" parent="E7lBSElSKZMrJUXUcwta-65" vertex="1">
          <mxGeometry y="34" width="254" height="26" as="geometry" />
        </mxCell>
        <mxCell id="E7lBSElSKZMrJUXUcwta-68" value="" style="endArrow=none;dashed=1;html=1;rounded=0;exitX=0.5;exitY=0;exitDx=0;exitDy=0;edgeStyle=elbowEdgeStyle;elbow=vertical;" parent="1" source="E7lBSElSKZMrJUXUcwta-65" edge="1">
          <mxGeometry width="50" height="50" relative="1" as="geometry">
            <mxPoint x="-178" y="554" as="sourcePoint" />
            <mxPoint x="44" y="508" as="targetPoint" />
            <Array as="points">
              <mxPoint x="96" y="508" />
            </Array>
          </mxGeometry>
        </mxCell>
        <mxCell id="E7lBSElSKZMrJUXUcwta-70" value="IFormatProvider" style="swimlane;fontStyle=1;align=center;verticalAlign=top;childLayout=stackLayout;horizontal=1;startSize=26;horizontalStack=0;resizeParent=1;resizeParentMax=0;resizeLast=0;collapsible=1;marginBottom=0;whiteSpace=wrap;html=1;" parent="1" vertex="1">
          <mxGeometry x="792" y="750" width="344" height="60" as="geometry" />
        </mxCell>
        <mxCell id="E7lBSElSKZMrJUXUcwta-72" value="" style="line;strokeWidth=1;fillColor=none;align=left;verticalAlign=middle;spacingTop=-1;spacingLeft=3;spacingRight=3;rotatable=0;labelPosition=right;points=[];portConstraint=eastwest;strokeColor=inherit;" parent="E7lBSElSKZMrJUXUcwta-70" vertex="1">
          <mxGeometry y="26" width="344" height="8" as="geometry" />
        </mxCell>
        <mxCell id="E7lBSElSKZMrJUXUcwta-73" value="+ ToString(format: string?, provider: IFormatProvider?): string" style="text;strokeColor=none;fillColor=none;align=left;verticalAlign=top;spacingLeft=4;spacingRight=4;overflow=hidden;rotatable=0;points=[[0,0.5],[1,0.5]];portConstraint=eastwest;whiteSpace=wrap;html=1;" parent="E7lBSElSKZMrJUXUcwta-70" vertex="1">
          <mxGeometry y="34" width="344" height="26" as="geometry" />
        </mxCell>
        <mxCell id="E7lBSElSKZMrJUXUcwta-36" value="" style="endArrow=diamondThin;endFill=1;endSize=24;html=1;rounded=0;exitX=0.505;exitY=-0.001;exitDx=0;exitDy=0;movable=1;resizable=1;rotatable=1;deletable=1;editable=1;locked=0;connectable=1;entryX=0.585;entryY=1.014;entryDx=0;entryDy=0;entryPerimeter=0;exitPerimeter=0;" parent="1" source="E7lBSElSKZMrJUXUcwta-23" target="E7lBSElSKZMrJUXUcwta-88" edge="1">
          <mxGeometry width="160" relative="1" as="geometry">
            <mxPoint x="350" y="330" as="sourcePoint" />
            <mxPoint x="614" y="276" as="targetPoint" />
          </mxGeometry>
        </mxCell>
        <mxCell id="E7lBSElSKZMrJUXUcwta-86" value="" style="group" parent="1" vertex="1" connectable="0">
          <mxGeometry x="452" y="328" width="336" height="272" as="geometry" />
        </mxCell>
        <mxCell id="E7lBSElSKZMrJUXUcwta-23" value="User" style="swimlane;fontStyle=1;align=center;verticalAlign=top;childLayout=stackLayout;horizontal=1;startSize=30;horizontalStack=0;resizeParent=1;resizeParentMax=0;resizeLast=0;collapsible=1;marginBottom=0;whiteSpace=wrap;html=1;" parent="E7lBSElSKZMrJUXUcwta-86" vertex="1">
          <mxGeometry y="22" width="336.00000000000006" height="348" as="geometry" />
        </mxCell>
        <mxCell id="z-QVnbDBLJ9JicikoFSE-10" value="-&amp;nbsp;_consumptionIndicators: DateTime[]" style="text;strokeColor=none;fillColor=none;align=left;verticalAlign=top;spacingLeft=4;spacingRight=4;overflow=hidden;rotatable=0;points=[[0,0.5],[1,0.5]];portConstraint=eastwest;whiteSpace=wrap;html=1;" parent="E7lBSElSKZMrJUXUcwta-23" vertex="1">
          <mxGeometry y="30" width="336.00000000000006" height="26" as="geometry" />
        </mxCell>
        <mxCell id="z-QVnbDBLJ9JicikoFSE-11" value="-&amp;nbsp;_outputElectricityDisplay: decimal" style="text;strokeColor=none;fillColor=none;align=left;verticalAlign=top;spacingLeft=4;spacingRight=4;overflow=hidden;rotatable=0;points=[[0,0.5],[1,0.5]];portConstraint=eastwest;whiteSpace=wrap;html=1;" parent="E7lBSElSKZMrJUXUcwta-23" vertex="1">
          <mxGeometry y="56" width="336.00000000000006" height="26" as="geometry" />
        </mxCell>
        <mxCell id="NaT7CDtq4gogR-BN8Hox-1" value="- _deposit: decimal" style="text;strokeColor=none;fillColor=none;align=left;verticalAlign=top;spacingLeft=4;spacingRight=4;overflow=hidden;rotatable=0;points=[[0,0.5],[1,0.5]];portConstraint=eastwest;whiteSpace=wrap;html=1;" vertex="1" parent="E7lBSElSKZMrJUXUcwta-23">
          <mxGeometry y="82" width="336.00000000000006" height="26" as="geometry" />
        </mxCell>
        <mxCell id="E7lBSElSKZMrJUXUcwta-24" value="+ ApartmentNumber: uint" style="text;strokeColor=none;fillColor=none;align=left;verticalAlign=top;spacingLeft=4;spacingRight=4;overflow=hidden;rotatable=0;points=[[0,0.5],[1,0.5]];portConstraint=eastwest;whiteSpace=wrap;html=1;" parent="E7lBSElSKZMrJUXUcwta-23" vertex="1">
          <mxGeometry y="108" width="336.00000000000006" height="26" as="geometry" />
        </mxCell>
        <mxCell id="E7lBSElSKZMrJUXUcwta-27" value="+ Address: string" style="text;strokeColor=none;fillColor=none;align=left;verticalAlign=top;spacingLeft=4;spacingRight=4;overflow=hidden;rotatable=0;points=[[0,0.5],[1,0.5]];portConstraint=eastwest;whiteSpace=wrap;html=1;" parent="E7lBSElSKZMrJUXUcwta-23" vertex="1">
          <mxGeometry y="134" width="336.00000000000006" height="26" as="geometry" />
        </mxCell>
        <mxCell id="E7lBSElSKZMrJUXUcwta-28" value="+ Surname: string" style="text;strokeColor=none;fillColor=none;align=left;verticalAlign=top;spacingLeft=4;spacingRight=4;overflow=hidden;rotatable=0;points=[[0,0.5],[1,0.5]];portConstraint=eastwest;whiteSpace=wrap;html=1;" parent="E7lBSElSKZMrJUXUcwta-23" vertex="1">
          <mxGeometry y="160" width="336.00000000000006" height="26" as="geometry" />
        </mxCell>
        <mxCell id="y3q3Z30JD7jSbJIT9nz_-3" value="+ Deposit: decimal" style="text;strokeColor=none;fillColor=none;align=left;verticalAlign=top;spacingLeft=4;spacingRight=4;overflow=hidden;rotatable=0;points=[[0,0.5],[1,0.5]];portConstraint=eastwest;whiteSpace=wrap;html=1;" parent="E7lBSElSKZMrJUXUcwta-23" vertex="1">
          <mxGeometry y="186" width="336.00000000000006" height="26" as="geometry" />
        </mxCell>
        <mxCell id="E7lBSElSKZMrJUXUcwta-29" value="+ InputElectricityDisplay: decimal" style="text;strokeColor=none;fillColor=none;align=left;verticalAlign=top;spacingLeft=4;spacingRight=4;overflow=hidden;rotatable=0;points=[[0,0.5],[1,0.5]];portConstraint=eastwest;whiteSpace=wrap;html=1;" parent="E7lBSElSKZMrJUXUcwta-23" vertex="1">
          <mxGeometry y="212" width="336.00000000000006" height="26" as="geometry" />
        </mxCell>
        <mxCell id="E7lBSElSKZMrJUXUcwta-30" value="+ OutputElectricityDisplay: decimal" style="text;strokeColor=none;fillColor=none;align=left;verticalAlign=top;spacingLeft=4;spacingRight=4;overflow=hidden;rotatable=0;points=[[0,0.5],[1,0.5]];portConstraint=eastwest;whiteSpace=wrap;html=1;" parent="E7lBSElSKZMrJUXUcwta-23" vertex="1">
          <mxGeometry y="238" width="336.00000000000006" height="26" as="geometry" />
        </mxCell>
        <mxCell id="E7lBSElSKZMrJUXUcwta-31" value="+ ConsuptionIndicators: DateTime[]&lt;br&gt;&lt;i&gt;//size of array = 3&lt;/i&gt;&amp;nbsp;" style="text;strokeColor=none;fillColor=none;align=left;verticalAlign=top;spacingLeft=4;spacingRight=4;overflow=hidden;rotatable=0;points=[[0,0.5],[1,0.5]];portConstraint=eastwest;whiteSpace=wrap;html=1;" parent="E7lBSElSKZMrJUXUcwta-23" vertex="1">
          <mxGeometry y="264" width="336.00000000000006" height="40" as="geometry" />
        </mxCell>
        <mxCell id="E7lBSElSKZMrJUXUcwta-25" value="" style="line;strokeWidth=1;fillColor=none;align=left;verticalAlign=middle;spacingTop=-1;spacingLeft=3;spacingRight=3;rotatable=0;labelPosition=right;points=[];portConstraint=eastwest;strokeColor=inherit;" parent="E7lBSElSKZMrJUXUcwta-23" vertex="1">
          <mxGeometry y="304" width="336.00000000000006" height="8" as="geometry" />
        </mxCell>
        <mxCell id="y3q3Z30JD7jSbJIT9nz_-15" value="+ ToString(format: string?, provider: IFormatProvider?): string" style="text;html=1;strokeColor=none;fillColor=none;align=left;verticalAlign=middle;whiteSpace=wrap;rounded=0;" parent="E7lBSElSKZMrJUXUcwta-23" vertex="1">
          <mxGeometry y="312" width="336.00000000000006" height="18" as="geometry" />
        </mxCell>
        <mxCell id="y3q3Z30JD7jSbJIT9nz_-17" value="+ ToString(): string&lt;span style=&quot;white-space: pre;&quot;&gt; &lt;/span&gt;&lt;span style=&quot;white-space: pre;&quot;&gt; &lt;/span&gt;&lt;span style=&quot;white-space: pre;&quot;&gt; &lt;/span&gt;&amp;lt;&amp;lt;override: Object&amp;gt;&amp;gt;" style="text;html=1;strokeColor=none;fillColor=none;align=left;verticalAlign=middle;whiteSpace=wrap;rounded=0;" parent="E7lBSElSKZMrJUXUcwta-23" vertex="1">
          <mxGeometry y="330" width="336.00000000000006" height="18" as="geometry" />
        </mxCell>
        <mxCell id="E7lBSElSKZMrJUXUcwta-78" value="0..*" style="text;align=center;fontStyle=0;verticalAlign=middle;spacingLeft=3;spacingRight=3;strokeColor=none;rotatable=1;points=[[0,0.5],[1,0.5]];portConstraint=eastwest;html=1;movable=1;resizable=1;deletable=1;editable=1;locked=0;connectable=1;" parent="E7lBSElSKZMrJUXUcwta-86" vertex="1">
          <mxGeometry x="175.20000000000002" width="19.200000000000003" height="26" as="geometry" />
        </mxCell>
        <mxCell id="E7lBSElSKZMrJUXUcwta-77" value="1" style="text;align=center;fontStyle=0;verticalAlign=middle;spacingLeft=3;spacingRight=3;strokeColor=none;rotatable=1;points=[[0,0.5],[1,0.5]];portConstraint=eastwest;html=1;movable=1;resizable=1;deletable=1;editable=1;locked=0;connectable=1;" parent="1" vertex="1">
          <mxGeometry x="628" y="286" width="16" height="26" as="geometry" />
        </mxCell>
        <mxCell id="E7lBSElSKZMrJUXUcwta-92" value="" style="endArrow=none;endFill=0;endSize=24;html=1;rounded=0;entryX=1;entryY=0.5;entryDx=0;entryDy=0;exitX=0;exitY=0.5;exitDx=0;exitDy=0;startArrow=open;startFill=0;startSize=12;" parent="1" source="E7lBSElSKZMrJUXUcwta-76" target="E7lBSElSKZMrJUXUcwta-2" edge="1">
          <mxGeometry width="160" relative="1" as="geometry">
            <mxPoint x="224" y="240" as="sourcePoint" />
            <mxPoint x="308" y="110" as="targetPoint" />
          </mxGeometry>
        </mxCell>
        <mxCell id="E7lBSElSKZMrJUXUcwta-94" value="" style="group" parent="1" vertex="1" connectable="0">
          <mxGeometry x="-102" y="128" width="406" height="86" as="geometry" />
        </mxCell>
        <mxCell id="E7lBSElSKZMrJUXUcwta-1" value="ElectricityManager" style="swimlane;fontStyle=1;align=center;verticalAlign=top;childLayout=stackLayout;horizontal=1;startSize=26;horizontalStack=0;resizeParent=1;resizeParentMax=0;resizeLast=0;collapsible=1;marginBottom=0;whiteSpace=wrap;html=1;" parent="E7lBSElSKZMrJUXUcwta-94" vertex="1">
          <mxGeometry width="384.05405405405406" height="86" as="geometry" />
        </mxCell>
        <mxCell id="E7lBSElSKZMrJUXUcwta-2" value="+ ElectricityUsage: ElectricityUsage&amp;nbsp;&lt;span style=&quot;white-space: pre;&quot;&gt; &lt;/span&gt;&lt;span style=&quot;white-space: pre;&quot;&gt; &lt;/span&gt;&amp;lt;&amp;lt;get; private set&amp;gt;&amp;gt;" style="text;strokeColor=none;fillColor=none;align=left;verticalAlign=top;spacingLeft=4;spacingRight=4;overflow=hidden;rotatable=0;points=[[0,0.5],[1,0.5]];portConstraint=eastwest;whiteSpace=wrap;html=1;" parent="E7lBSElSKZMrJUXUcwta-1" vertex="1">
          <mxGeometry y="26" width="384.05405405405406" height="26" as="geometry" />
        </mxCell>
        <mxCell id="E7lBSElSKZMrJUXUcwta-3" value="" style="line;strokeWidth=1;fillColor=none;align=left;verticalAlign=middle;spacingTop=-1;spacingLeft=3;spacingRight=3;rotatable=0;labelPosition=right;points=[];portConstraint=eastwest;strokeColor=inherit;" parent="E7lBSElSKZMrJUXUcwta-1" vertex="1">
          <mxGeometry y="52" width="384.05405405405406" height="8" as="geometry" />
        </mxCell>
        <mxCell id="E7lBSElSKZMrJUXUcwta-4" value="+ ReadFile(path: string, reader: IElectricityUsageReader): void" style="text;strokeColor=none;fillColor=none;align=left;verticalAlign=top;spacingLeft=4;spacingRight=4;overflow=hidden;rotatable=0;points=[[0,0.5],[1,0.5]];portConstraint=eastwest;whiteSpace=wrap;html=1;" parent="E7lBSElSKZMrJUXUcwta-1" vertex="1">
          <mxGeometry y="60" width="384.05405405405406" height="26" as="geometry" />
        </mxCell>
        <mxCell id="E7lBSElSKZMrJUXUcwta-96" value="" style="group" parent="1" vertex="1" connectable="0">
          <mxGeometry x="360" y="-42" width="440" height="220" as="geometry" />
        </mxCell>
        <mxCell id="E7lBSElSKZMrJUXUcwta-85" value="" style="group" parent="E7lBSElSKZMrJUXUcwta-96" vertex="1" connectable="0">
          <mxGeometry x="14" y="-6" width="424" height="220" as="geometry" />
        </mxCell>
        <mxCell id="E7lBSElSKZMrJUXUcwta-39" value="&lt;b style=&quot;border-color: var(--border-color);&quot;&gt;ElectricityUsage&lt;br&gt;&lt;/b&gt;" style="swimlane;fontStyle=1;align=center;verticalAlign=top;childLayout=stackLayout;horizontal=1;startSize=26;horizontalStack=0;resizeParent=1;resizeParentMax=0;resizeLast=0;collapsible=1;marginBottom=0;whiteSpace=wrap;html=1;gradientColor=none;" parent="E7lBSElSKZMrJUXUcwta-85" vertex="1">
          <mxGeometry width="424" height="332" as="geometry" />
        </mxCell>
        <mxCell id="NaT7CDtq4gogR-BN8Hox-2" value="&lt;u&gt;- INFO_COLUMNS: string&lt;/u&gt;" style="text;strokeColor=none;fillColor=none;align=left;verticalAlign=top;spacingLeft=4;spacingRight=4;overflow=hidden;rotatable=0;points=[[0,0.5],[1,0.5]];portConstraint=eastwest;whiteSpace=wrap;html=1;" vertex="1" parent="E7lBSElSKZMrJUXUcwta-39">
          <mxGeometry y="26" width="424" height="24" as="geometry" />
        </mxCell>
        <mxCell id="z-QVnbDBLJ9JicikoFSE-8" value="- _quarterNumber: byte" style="text;strokeColor=none;fillColor=none;align=left;verticalAlign=top;spacingLeft=4;spacingRight=4;overflow=hidden;rotatable=0;points=[[0,0.5],[1,0.5]];portConstraint=eastwest;whiteSpace=wrap;html=1;" parent="E7lBSElSKZMrJUXUcwta-39" vertex="1">
          <mxGeometry y="50" width="424" height="24" as="geometry" />
        </mxCell>
        <mxCell id="z-QVnbDBLJ9JicikoFSE-9" value="- _users:&amp;nbsp;List&amp;lt;User&amp;gt;?" style="text;strokeColor=none;fillColor=none;align=left;verticalAlign=top;spacingLeft=4;spacingRight=4;overflow=hidden;rotatable=0;points=[[0,0.5],[1,0.5]];portConstraint=eastwest;whiteSpace=wrap;html=1;" parent="E7lBSElSKZMrJUXUcwta-39" vertex="1">
          <mxGeometry y="74" width="424" height="24" as="geometry" />
        </mxCell>
        <mxCell id="E7lBSElSKZMrJUXUcwta-40" value="+ ApartmentCount: uint" style="text;strokeColor=none;fillColor=none;align=left;verticalAlign=top;spacingLeft=4;spacingRight=4;overflow=hidden;rotatable=0;points=[[0,0.5],[1,0.5]];portConstraint=eastwest;whiteSpace=wrap;html=1;" parent="E7lBSElSKZMrJUXUcwta-39" vertex="1">
          <mxGeometry y="98" width="424" height="24" as="geometry" />
        </mxCell>
        <mxCell id="E7lBSElSKZMrJUXUcwta-46" value="+ QuarterNumber: byte" style="text;strokeColor=none;fillColor=none;align=left;verticalAlign=top;spacingLeft=4;spacingRight=4;overflow=hidden;rotatable=0;points=[[0,0.5],[1,0.5]];portConstraint=eastwest;whiteSpace=wrap;html=1;" parent="E7lBSElSKZMrJUXUcwta-39" vertex="1">
          <mxGeometry y="122" width="424" height="24" as="geometry" />
        </mxCell>
        <mxCell id="E7lBSElSKZMrJUXUcwta-47" value="+ Users:&amp;nbsp;List&amp;lt;User&amp;gt;" style="text;strokeColor=none;fillColor=none;align=left;verticalAlign=top;spacingLeft=4;spacingRight=4;overflow=hidden;rotatable=0;points=[[0,0.5],[1,0.5]];portConstraint=eastwest;whiteSpace=wrap;html=1;" parent="E7lBSElSKZMrJUXUcwta-39" vertex="1">
          <mxGeometry y="146" width="424" height="24" as="geometry" />
        </mxCell>
        <mxCell id="z-QVnbDBLJ9JicikoFSE-3" style="edgeStyle=orthogonalEdgeStyle;rounded=0;orthogonalLoop=1;jettySize=auto;html=1;endArrow=none;endFill=0;dashed=1;" parent="E7lBSElSKZMrJUXUcwta-39" edge="1">
          <mxGeometry relative="1" as="geometry">
            <mxPoint x="590" y="766" as="targetPoint" />
            <mxPoint x="424" y="16" as="sourcePoint" />
            <Array as="points">
              <mxPoint x="896" y="16" />
              <mxPoint x="896" y="766" />
              <mxPoint x="590" y="766" />
            </Array>
          </mxGeometry>
        </mxCell>
        <mxCell id="y3q3Z30JD7jSbJIT9nz_-18" value="+ PricePerKilowatt : decimal" style="text;strokeColor=none;fillColor=none;align=left;verticalAlign=top;spacingLeft=4;spacingRight=4;overflow=hidden;rotatable=0;points=[[0,0.5],[1,0.5]];portConstraint=eastwest;whiteSpace=wrap;html=1;" parent="E7lBSElSKZMrJUXUcwta-39" vertex="1">
          <mxGeometry y="170" width="424" height="24" as="geometry" />
        </mxCell>
        <mxCell id="E7lBSElSKZMrJUXUcwta-41" value="" style="line;strokeWidth=1;fillColor=none;align=left;verticalAlign=middle;spacingTop=-1;spacingLeft=3;spacingRight=3;rotatable=0;labelPosition=right;points=[];portConstraint=eastwest;strokeColor=inherit;" parent="E7lBSElSKZMrJUXUcwta-39" vertex="1">
          <mxGeometry y="194" width="424" height="8" as="geometry" />
        </mxCell>
        <mxCell id="E7lBSElSKZMrJUXUcwta-76" value="+ PrintByApartment(apartmentNumber: uint): string" style="text;strokeColor=none;fillColor=none;align=left;verticalAlign=top;spacingLeft=4;spacingRight=4;overflow=hidden;rotatable=0;points=[[0,0.5],[1,0.5]];portConstraint=eastwest;whiteSpace=wrap;html=1;" parent="E7lBSElSKZMrJUXUcwta-39" vertex="1">
          <mxGeometry y="202" width="424" height="26" as="geometry" />
        </mxCell>
        <mxCell id="E7lBSElSKZMrJUXUcwta-90" value="+ GetMostArrearUsername(): string?" style="text;strokeColor=none;fillColor=none;align=left;verticalAlign=top;spacingLeft=4;spacingRight=4;overflow=hidden;rotatable=0;points=[[0,0.5],[1,0.5]];portConstraint=eastwest;whiteSpace=wrap;html=1;" parent="E7lBSElSKZMrJUXUcwta-39" vertex="1">
          <mxGeometry y="228" width="424" height="26" as="geometry" />
        </mxCell>
        <mxCell id="E7lBSElSKZMrJUXUcwta-91" value="+ ZeroCunsuptionApartment(): uint" style="text;strokeColor=none;fillColor=none;align=left;verticalAlign=top;spacingLeft=4;spacingRight=4;overflow=hidden;rotatable=0;points=[[0,0.5],[1,0.5]];portConstraint=eastwest;whiteSpace=wrap;html=1;" parent="E7lBSElSKZMrJUXUcwta-39" vertex="1">
          <mxGeometry y="254" width="424" height="26" as="geometry" />
        </mxCell>
        <mxCell id="z-QVnbDBLJ9JicikoFSE-5" value="+ ToString(format: string?, provider: IFormatProvider?): string" style="text;strokeColor=none;fillColor=none;align=left;verticalAlign=top;spacingLeft=4;spacingRight=4;overflow=hidden;rotatable=0;points=[[0,0.5],[1,0.5]];portConstraint=eastwest;whiteSpace=wrap;html=1;" parent="E7lBSElSKZMrJUXUcwta-39" vertex="1">
          <mxGeometry y="280" width="424" height="26" as="geometry" />
        </mxCell>
        <mxCell id="E7lBSElSKZMrJUXUcwta-88" value="&lt;span style=&quot;color: rgb(0, 0, 0); font-family: Helvetica; font-size: 12px; font-style: normal; font-variant-ligatures: normal; font-variant-caps: normal; font-weight: 400; letter-spacing: normal; orphans: 2; text-align: left; text-indent: 0px; text-transform: none; widows: 2; word-spacing: 0px; -webkit-text-stroke-width: 0px; background-color: rgb(251, 251, 251); text-decoration-thickness: initial; text-decoration-style: initial; text-decoration-color: initial; float: none; display: inline !important;&quot;&gt;+&lt;/span&gt;&lt;span style=&quot;color: rgb(0, 0, 0); font-family: Helvetica; font-size: 12px; font-style: normal; font-variant-ligatures: normal; font-variant-caps: normal; font-weight: 400; letter-spacing: normal; orphans: 2; text-align: left; text-indent: 0px; text-transform: none; widows: 2; word-spacing: 0px; -webkit-text-stroke-width: 0px; text-decoration-thickness: initial; text-decoration-style: initial; text-decoration-color: initial; float: none; display: inline !important;&quot;&gt; ToString(): string&lt;/span&gt;&lt;span style=&quot;border-color: var(--border-color); color: rgb(0, 0, 0); font-family: Helvetica; font-size: 12px; font-style: normal; font-variant-ligatures: normal; font-variant-caps: normal; font-weight: 400; letter-spacing: normal; orphans: 2; text-align: left; text-indent: 0px; text-transform: none; widows: 2; word-spacing: 0px; -webkit-text-stroke-width: 0px; text-decoration-thickness: initial; text-decoration-style: initial; text-decoration-color: initial;&quot;&gt; &lt;span style=&quot;white-space: pre;&quot;&gt; &lt;/span&gt;&lt;span style=&quot;white-space: pre;&quot;&gt; &lt;/span&gt;&lt;/span&gt;&lt;span style=&quot;border-color: var(--border-color); color: rgb(0, 0, 0); font-family: Helvetica; font-size: 12px; font-style: normal; font-variant-ligatures: normal; font-variant-caps: normal; font-weight: 400; letter-spacing: normal; orphans: 2; text-align: left; text-indent: 0px; text-transform: none; widows: 2; word-spacing: 0px; -webkit-text-stroke-width: 0px; text-decoration-thickness: initial; text-decoration-style: initial; text-decoration-color: initial;&quot;&gt; &lt;span style=&quot;white-space: pre;&quot;&gt; &lt;/span&gt;&lt;span style=&quot;white-space: pre;&quot;&gt; &lt;/span&gt;&lt;span style=&quot;white-space: pre;&quot;&gt; &lt;/span&gt;&lt;span style=&quot;white-space: pre;&quot;&gt; &lt;/span&gt;&lt;span style=&quot;white-space: pre;&quot;&gt; &lt;/span&gt;&lt;span style=&quot;white-space: pre;&quot;&gt; &lt;/span&gt;&lt;span style=&quot;white-space: pre;&quot;&gt; &lt;/span&gt;&amp;nbsp; &amp;nbsp; &amp;nbsp;&amp;nbsp;&lt;/span&gt;&lt;span style=&quot;color: rgb(0, 0, 0); font-family: Helvetica; font-size: 12px; font-style: normal; font-variant-ligatures: normal; font-variant-caps: normal; font-weight: 400; letter-spacing: normal; orphans: 2; text-align: left; text-indent: 0px; text-transform: none; widows: 2; word-spacing: 0px; -webkit-text-stroke-width: 0px; text-decoration-thickness: initial; text-decoration-style: initial; text-decoration-color: initial; float: none; display: inline !important;&quot;&gt;&amp;lt;&amp;lt;override&amp;gt;&amp;gt;&lt;/span&gt;" style="text;strokeColor=none;fillColor=none;align=left;verticalAlign=top;spacingLeft=4;spacingRight=4;overflow=hidden;rotatable=0;points=[[0,0.5],[1,0.5]];portConstraint=eastwest;whiteSpace=wrap;html=1;" parent="E7lBSElSKZMrJUXUcwta-39" vertex="1">
          <mxGeometry y="306" width="424" height="26" as="geometry" />
        </mxCell>
        <mxCell id="E7lBSElSKZMrJUXUcwta-100" value="" style="endArrow=open;dashed=1;html=1;rounded=0;entryX=0;entryY=0.5;entryDx=0;entryDy=0;endFill=0;endSize=12;edgeStyle=elbowEdgeStyle;" parent="1" target="E7lBSElSKZMrJUXUcwta-69" edge="1">
          <mxGeometry width="50" height="50" relative="1" as="geometry">
            <mxPoint x="790" y="495" as="sourcePoint" />
            <mxPoint x="810" y="438" as="targetPoint" />
          </mxGeometry>
        </mxCell>
        <mxCell id="z-QVnbDBLJ9JicikoFSE-13" style="edgeStyle=orthogonalEdgeStyle;rounded=0;orthogonalLoop=1;jettySize=auto;html=1;exitX=0.5;exitY=1;exitDx=0;exitDy=0;endArrow=open;endFill=0;endSize=12;" parent="1" source="E7lBSElSKZMrJUXUcwta-103" edge="1">
          <mxGeometry relative="1" as="geometry">
            <mxPoint x="176" y="444" as="targetPoint" />
            <Array as="points">
              <mxPoint x="259" y="444" />
            </Array>
          </mxGeometry>
        </mxCell>
        <mxCell id="E7lBSElSKZMrJUXUcwta-103" value="Client" style="html=1;whiteSpace=wrap;fontStyle=1;fontSize=24;fillColor=#fff2cc;strokeColor=#d6b656;" parent="1" vertex="1">
          <mxGeometry x="204" y="318" width="110" height="38" as="geometry" />
        </mxCell>
        <mxCell id="E7lBSElSKZMrJUXUcwta-104" value="" style="endArrow=open;endFill=1;endSize=12;html=1;rounded=0;exitX=0;exitY=0.5;exitDx=0;exitDy=0;entryX=0.494;entryY=1.013;entryDx=0;entryDy=0;entryPerimeter=0;edgeStyle=elbowEdgeStyle;" parent="1" source="E7lBSElSKZMrJUXUcwta-103" target="E7lBSElSKZMrJUXUcwta-4" edge="1">
          <mxGeometry width="160" relative="1" as="geometry">
            <mxPoint x="400" y="262" as="sourcePoint" />
            <mxPoint x="86" y="252" as="targetPoint" />
            <Array as="points">
              <mxPoint x="88" y="312" />
            </Array>
          </mxGeometry>
        </mxCell>
        <mxCell id="E7lBSElSKZMrJUXUcwta-105" value="" style="endArrow=open;endFill=1;endSize=12;html=1;rounded=0;edgeStyle=elbowEdgeStyle;elbow=vertical;exitX=1;exitY=0.5;exitDx=0;exitDy=0;" parent="1" source="E7lBSElSKZMrJUXUcwta-103" edge="1">
          <mxGeometry width="160" relative="1" as="geometry">
            <mxPoint x="320" y="373" as="sourcePoint" />
            <mxPoint x="504" y="288" as="targetPoint" />
            <Array as="points">
              <mxPoint x="406" y="337" />
            </Array>
          </mxGeometry>
        </mxCell>
        <mxCell id="E7lBSElSKZMrJUXUcwta-107" value="" style="endArrow=open;endFill=1;endSize=12;html=1;rounded=0;exitX=0.5;exitY=1;exitDx=0;exitDy=0;edgeStyle=elbowEdgeStyle;elbow=vertical;" parent="1" source="E7lBSElSKZMrJUXUcwta-103" edge="1">
          <mxGeometry width="160" relative="1" as="geometry">
            <mxPoint x="150" y="316" as="sourcePoint" />
            <mxPoint x="450" y="444" as="targetPoint" />
            <Array as="points">
              <mxPoint x="358" y="444" />
              <mxPoint x="276" y="446" />
            </Array>
          </mxGeometry>
        </mxCell>
        <mxCell id="E7lBSElSKZMrJUXUcwta-108" value="" style="endArrow=open;dashed=1;endFill=0;endSize=12;html=1;rounded=0;entryX=0.5;entryY=0;entryDx=0;entryDy=0;exitX=0.37;exitY=1.039;exitDx=0;exitDy=0;exitPerimeter=0;" parent="1" source="E7lBSElSKZMrJUXUcwta-4" target="E7lBSElSKZMrJUXUcwta-5" edge="1">
          <mxGeometry width="160" relative="1" as="geometry">
            <mxPoint x="56" y="252" as="sourcePoint" />
            <mxPoint x="168" y="252" as="targetPoint" />
          </mxGeometry>
        </mxCell>
        <mxCell id="E7lBSElSKZMrJUXUcwta-109" style="edgeStyle=orthogonalEdgeStyle;rounded=0;orthogonalLoop=1;jettySize=auto;html=1;exitX=0;exitY=0.5;exitDx=0;exitDy=0;endArrow=open;endFill=0;dashed=1;endSize=12;entryX=0.513;entryY=1.131;entryDx=0;entryDy=0;entryPerimeter=0;" parent="1" target="E7lBSElSKZMrJUXUcwta-98" edge="1">
          <mxGeometry relative="1" as="geometry">
            <mxPoint x="880" y="584" as="targetPoint" />
            <Array as="points">
              <mxPoint x="-102" y="203" />
              <mxPoint x="-168" y="203" />
              <mxPoint x="-168" y="656" />
              <mxPoint x="999" y="656" />
            </Array>
          </mxGeometry>
        </mxCell>
        <mxCell id="y3q3Z30JD7jSbJIT9nz_-1" style="edgeStyle=orthogonalEdgeStyle;rounded=0;orthogonalLoop=1;jettySize=auto;html=1;exitX=0.5;exitY=1;exitDx=0;exitDy=0;endArrow=block;endFill=0;endSize=12;dashed=1;entryX=0.5;entryY=0;entryDx=0;entryDy=0;" parent="1" source="E7lBSElSKZMrJUXUcwta-23" target="E7lBSElSKZMrJUXUcwta-70" edge="1">
          <mxGeometry relative="1" as="geometry">
            <Array as="points">
              <mxPoint x="620" y="718" />
              <mxPoint x="964" y="718" />
            </Array>
          </mxGeometry>
        </mxCell>
      </root>
    </mxGraphModel>
  </diagram>
</mxfile>
